<?xml version="1.0" encoding="UTF-8"?>
<svg xmlns="http://www.w3.org/2000/svg" xmlns:xlink="http://www.w3.org/1999/xlink" width="178px" height="72px" viewBox="0 0 178 72" version="1.1">
  <title>Sociaal loket-logo</title>
  <g id="Sociaal-loket-logo" stroke="none" stroke-width="1" fill="none" fill-rule="evenodd">
    <g id="medemblik-logo" fill-rule="nonzero">
      <g id="Woordmerk" transform="translate(58.2586, 21.233)" fill="#003E51">
        <path d="M12.7070338,5.45544694 C11.1453733,5.45544694 9.98679621,4.57096663 9.98679621,2.82849434 C9.98679621,1.25531711 11.0728183,0 12.9350639,0 C13.5074425,0 14.083276,0.078313361 14.6533512,0.262580093 L14.4103494,1.38775883 C13.9427726,1.19427876 13.4763474,1.09293206 12.9707656,1.09293206 C12.0459769,1.09293206 11.367645,1.68488893 11.367645,2.72599597 C11.367645,3.739463 11.9561469,4.29686986 12.8152905,4.29686986 C13.0410173,4.29686986 13.263289,4.26807818 13.4441008,4.2081915 L13.4441008,2.55670091 L14.7546979,2.55670091 L14.7546979,5.07079014 C14.124736,5.31148855 13.4556174,5.45544694 12.7070338,5.45544694" id="Fill-1"></path>
        <polygon id="Fill-3" points="17.8063853 5.36204674 17.8063853 0.090866532 21.0494798 0.090866532 21.0494798 1.11469856 19.1135274 1.11469856 19.1135274 2.16962561 20.9596498 2.16962561 20.9596498 3.16236262 19.1135274 3.16236262 19.1135274 4.31863637 21.0494798 4.31863637 21.0494798 5.36204674"></polygon>
        <path d="M29.5423335,5.36204674 L29.1887717,2.82722751 C29.1300367,2.38383568 29.0759083,1.97844887 29.0436616,1.67210543 L29.0367516,1.67210543 C28.9653483,2.00493721 28.8755182,2.37231901 28.7730199,2.71666747 L27.9219379,5.36204674 L26.5606674,5.36204674 L25.7994155,2.91936087 C25.6784904,2.54506907 25.5552621,2.07518891 25.4746454,1.69283544 L25.4642804,1.69283544 C25.444702,2.08785724 25.403242,2.47021071 25.3422037,2.89863086 L25.0289502,5.36204674 L23.7183531,5.36204674 L24.5440984,0.090866532 L26.185224,0.090866532 L27.0466709,2.76618915 C27.136501,3.06101592 27.229786,3.40651604 27.298886,3.76007784 L27.309251,3.76007784 C27.381806,3.38808937 27.4647261,3.10247594 27.5649211,2.78922249 L28.4586148,0.090866532 L30.131987,0.090866532 L30.9323956,5.36204674 L29.5423335,5.36204674 Z" id="Fill-5"></path>
        <polygon id="Fill-7" points="33.7834627 5.36204674 33.7834627 0.090866532 37.0265571 0.090866532 37.0265571 1.11469856 35.0906048 1.11469856 35.0906048 2.16962561 36.9367271 2.16962561 36.9367271 3.16236262 35.0906048 3.16236262 35.0906048 4.31863637 37.0265571 4.31863637 37.0265571 5.36204674"></polygon>
        <polygon id="Fill-9" points="39.9917544 5.36204674 39.9917544 0.090866532 43.2394555 0.090866532 43.2394555 1.11469856 41.3011998 1.11469856 41.3011998 2.16962561 43.1438671 2.16962561 43.1438671 3.16236262 41.3011998 3.16236262 41.3011998 4.31863637 43.2394555 4.31863637 43.2394555 5.36204674"></polygon>
        <path d="M49.5154652,5.36204674 L47.9342263,2.78922249 C47.755718,2.49554739 47.5679962,2.11780059 47.4344028,1.82067048 L47.4263412,1.82067048 C47.4459195,2.07518891 47.4574362,2.33892067 47.4574362,2.75697581 L47.4574362,5.36204674 L46.2009674,5.36204674 L46.2009674,0.090866532 L47.9549564,0.090866532 L49.4855219,2.60495576 C49.6882153,2.91936087 49.8713304,3.25564766 50.0348671,3.60690612 L50.0452321,3.60690612 C50.0198954,3.29480434 50.0152888,2.85832252 50.0152888,2.31243232 L50.0049238,0.090866532 L51.2706059,0.090866532 L51.2706059,5.36204674 L49.5154652,5.36204674 Z" id="Fill-11"></path>
        <polygon id="Fill-13" points="56.4434337 1.2041831 56.4434337 5.36285291 55.1339882 5.36285291 55.1339882 1.2041831 53.7531394 1.2041831 53.7531394 0.091672699 57.8219792 0.091672699 57.8219792 1.2041831"></polygon>
        <polygon id="Fill-15" points="60.3269702 5.36204674 60.3269702 0.090866532 63.5746714 0.090866532 63.5746714 1.11469856 61.6375674 1.11469856 61.6375674 2.16962561 63.482538 2.16962561 63.482538 3.16236262 61.6375674 3.16236262 61.6375674 4.31863637 63.5746714 4.31863637 63.5746714 5.36204674"></polygon>
        <path d="M16.5747925,28.6918273 L15.4035471,20.8397612 C15.161697,19.276949 15.0142837,18.0573336 14.8933586,16.9091215 L14.8449886,16.9091215 C14.6261719,17.9594419 14.3566818,19.1065023 13.9386266,20.4205544 L11.332404,28.6918273 L8.20447625,28.6918273 L5.70651036,21.0574263 C5.26542187,19.7145825 4.85082173,18.2277803 4.65503832,16.9091215 L4.60897164,16.9091215 C4.50992827,18.374042 4.33948154,19.6673641 4.14484981,21.1057963 L3.21775781,28.6918273 L0,28.6918273 L2.53481924,12.2298982 L6.24203555,12.2298982 L8.98300319,20.6900445 C9.36881166,21.8624416 9.6613351,22.9830136 9.87669681,24.1588657 L9.92852191,24.1588657 C10.1692203,22.8897286 10.432952,21.9603333 10.8475522,20.7395662 L13.6714398,12.2298982 L17.3544712,12.2298982 L19.9146271,28.6918273 L16.5747925,28.6918273 Z" id="Fill-17"></path>
        <path d="M26.9657087,18.5938953 C25.6712349,18.5938953 24.7706313,19.5440206 24.6001846,21.0100928 L29.0675011,21.0100928 C29.1124162,19.4944989 28.2820642,18.5938953 26.9657087,18.5938953 M32.0652905,23.1314635 L24.5506629,23.1314635 C24.5264779,25.399096 25.6493533,26.4977864 27.8951041,26.4977864 C29.0870795,26.4977864 30.3815533,26.229448 31.4284187,25.7388378 L31.7243971,28.156187 C30.4287716,28.6698305 28.8924478,28.9381689 27.3791572,28.9381689 C23.5279825,28.9381689 21.3778201,27.0114299 21.3778201,22.7422001 C21.3778201,19.0361354 23.4300908,16.3020778 27.0659038,16.3020778 C30.6015217,16.3020778 32.1631822,18.7171236 32.1631822,21.7172164 C32.1631822,22.1295132 32.1389972,22.6189717 32.0652905,23.1314635" id="Fill-19"></path>
        <path d="M41.8958055,19.0094167 C41.3314887,18.8861884 40.7994185,18.814785 40.2604383,18.814785 C38.479961,18.814785 37.2119755,19.9365087 37.2119755,22.9354498 C37.2119755,25.2019306 37.8684258,26.3754793 39.2861279,26.3754793 C40.9203435,26.3754793 41.8958055,24.4717737 41.8958055,22.3987729 L41.8958055,19.0094167 Z M42.0904373,28.7168185 C42.0904373,28.1052833 42.1388073,27.327908 42.236699,26.6680028 L42.188329,26.6680028 C41.5560637,28.0108466 40.2109166,28.9609719 38.3590359,28.9609719 C35.4050099,28.9609719 33.944696,26.7417095 33.944696,23.2786466 C33.944696,19.1798635 36.3309502,16.3479141 40.3594817,16.3479141 C40.8719735,16.3479141 41.3591287,16.3744025 41.8958055,16.4481092 L41.8958055,13.2787214 C41.309607,13.179678 40.4804067,13.082938 39.7732831,13.0322646 L39.7732831,11.0836439 C41.309607,10.8867088 43.2133127,10.8130022 44.9926383,10.8636755 L44.9926383,26.3017727 C45.5788368,26.400816 46.4057338,26.4975561 47.1151607,26.5459261 L47.1151607,28.5003051 C45.5788368,28.6914818 43.7004678,28.7651885 42.0904373,28.7168185 L42.0904373,28.7168185 Z" id="Fill-21"></path>
        <path d="M53.4326305,18.5938953 C52.1416117,18.5938953 51.2387047,19.5440206 51.064803,21.0100928 L55.5298162,21.0100928 C55.5804896,19.4944989 54.7512893,18.5938953 53.4326305,18.5938953 M58.5310606,23.1314635 L51.0175846,23.1314635 C50.9933996,25.399096 52.1185783,26.4977864 54.3620258,26.4977864 C55.5574562,26.4977864 56.8473233,26.229448 57.8976437,25.7388378 L58.1878638,28.156187 C56.8979967,28.6698305 55.3616728,28.9381689 53.8495339,28.9381689 C49.9926009,28.9381689 47.8470452,27.0114299 47.8470452,22.7422001 C47.8470452,19.0361354 49.8970125,16.3020778 53.5316738,16.3020778 C57.0672918,16.3020778 58.6289523,18.7171236 58.6289523,21.7172164 C58.6289523,22.1295132 58.6070706,22.6189717 58.5310606,23.1314635" id="Fill-23"></path>
        <path d="M76.7776131,28.6918273 L76.7776131,21.0102079 C76.7776131,19.7145825 76.487393,18.9095672 75.3380292,18.9095672 C73.9733038,18.9095672 72.5602083,20.5230528 72.5602083,22.8897286 L72.5602083,28.6918273 L69.4829538,28.6918273 L69.4829538,21.0102079 C69.4829538,19.8136259 69.2422554,18.9095672 68.0456733,18.9095672 C66.6060895,18.9095672 65.2667007,20.6174895 65.2667007,22.8897286 L65.2667007,28.6918273 L62.1641096,28.6918273 L62.1641096,18.9602405 C61.581366,18.8623488 60.7521657,18.7633055 60.0438905,18.7172388 L60.0438905,16.7640114 C61.581366,16.568228 63.4827684,16.4979763 65.0951023,16.5451947 C65.0951023,17.1302416 65.0444289,18.0331486 64.9488406,18.7402721 L64.9730256,18.7402721 C65.7008792,17.2534699 67.1657997,16.3021929 68.9727653,16.3021929 C71.1183211,16.3021929 72.0246831,17.5701784 72.3149032,18.7402721 C72.8769167,17.5448417 74.2163055,16.3021929 76.2674246,16.3021929 C78.6099154,16.3021929 79.9009342,17.5943634 79.9009342,20.3479994 L79.9009342,28.6918273 L76.7776131,28.6918273 Z" id="Fill-25"></path>
        <path d="M88.731687,18.9104885 C87.1205048,18.9104885 86.1461944,20.7900092 86.1461944,22.8134882 L86.1461944,26.2293328 C86.5849796,26.3767462 87.0951681,26.4481495 87.756225,26.4481495 C89.5367023,26.4481495 90.8046877,25.3264258 90.8046877,22.3286364 C90.8046877,20.0563973 90.1470858,18.9104885 88.731687,18.9104885 L88.731687,18.9104885 Z M86.1461944,16.1061792 C86.1461944,16.8374878 86.0713361,17.8348315 85.9515627,18.4705517 L85.974596,18.4705517 C86.5849796,17.1576512 87.92552,16.3284509 89.634594,16.3284509 C92.5344917,16.3284509 94.0984556,18.424485 94.0984556,22.011928 C94.0984556,26.1084078 91.7087464,28.9380538 87.5362566,28.9380538 C85.781116,28.9380538 84.4117838,28.7422704 83.02057,28.3553102 L83.02057,13.2788365 C82.4389781,13.1809448 81.6086261,13.0830531 80.9003509,13.0312281 L80.9003509,11.0837591 C82.4597081,10.8879757 84.3403804,10.814269 86.1461944,10.8637907 L86.1461944,16.1061792 Z" id="Fill-27"></path>
        <path d="M99.392554,28.6918273 L96.2692328,28.6918273 L96.2692328,13.2790669 C95.680731,13.1800235 94.8549857,13.0821318 94.1467104,13.0326101 L94.1467104,11.0839894 C95.7095226,10.8870543 97.5878916,10.8133477 99.392554,10.864021 L99.392554,28.6918273 Z" id="Fill-29"></path>
        <path d="M104.734677,15.0078343 C103.683205,15.0078343 102.805635,14.1556007 102.805635,13.106432 C102.805635,12.0825999 103.683205,11.2292146 104.734677,11.2292146 C105.809182,11.2292146 106.686753,12.0584149 106.686753,13.106432 C106.686753,14.1556007 105.809182,15.0078343 104.734677,15.0078343 L104.734677,15.0078343 Z M106.295186,28.6919425 L103.194898,28.6919425 L103.194898,18.9603557 C102.611003,18.862464 101.780651,18.7634206 101.075831,18.717354 L101.075831,16.7641266 C102.611003,16.5683432 104.487068,16.4980915 106.295186,16.5453099 L106.295186,28.6919425 Z" id="Fill-31"></path>
        <path d="M116.784454,28.6918273 L113.028868,22.6916419 L113.028868,28.6918273 L109.904395,28.6918273 L109.904395,13.2790669 C109.318197,13.1800235 108.488996,13.0821318 107.783024,13.0326101 L107.783024,11.0839894 C109.344685,10.8870543 111.224206,10.8133477 113.028868,10.864021 L113.028868,21.6228948 L116.565638,16.568228 L120.368442,16.568228 L116.100364,22.106595 L120.686302,28.6918273 L116.784454,28.6918273 Z" id="Fill-33"></path>
      </g>
      <g id="Beeldmerk" fill="#509E2F">
        <path d="M0,59.6850975 C0.0871400066,59.6961206 0.937061902,55.6895213 4.37050089,51.0962611 C7.84137327,46.2784006 13.8945354,40.8695836 25.2276455,32.9030232 C26.9962195,32.9367746 28.7838169,32.850862 30.5720281,32.6403759 C18.9744296,46.8478789 7.4627438,55.862574 0,59.6850975" id="Fill-36"></path>
        <path d="M14.440265,63.8902128 C14.5304733,63.9012396 15.8811434,59.0987206 20.3081012,52.3858718 C24.6816704,45.4484227 32.133982,36.6018711 43.2154907,23.3412485 C44.9319034,22.5434879 46.6151783,21.6162446 48.2518149,20.5693372 C37.6403713,40.2028398 25.0504813,54.6435344 14.440265,63.8902128" id="Fill-39"></path>
        <path d="M32.1196223,59.5958015 C32.2135126,59.6062191 33.7445993,54.0071669 38.322518,45.1759568 C42.7586807,36.12076 50.240448,23.8315644 58.9476984,5.281789 C60.2750494,3.64576606 61.5213969,1.8839424 62.6707859,0 C55.2276793,25.0588885 43.7166071,44.923128 32.1196223,59.5958015" id="Fill-42"></path>
      </g>
    </g>
    <g id="Group" transform="translate(107, 56)">
      <g id="sociaal-loket" transform="translate(10.275, 0)" fill="#003E51" fill-rule="nonzero">
        <path d="M2.4,7.69 C1.82166667,7.69 1.31791667,7.55125 0.88875,7.27375 C0.459583333,6.99625 0.163333333,6.62166667 0,6.15 L0.9825,5.685 C1.12583333,5.98666667 1.32208333,6.22416667 1.57125,6.3975 C1.82041667,6.57083333 2.09666667,6.6575 2.4,6.6575 C2.64,6.6575 2.83,6.60541667 2.97,6.50125 C3.11,6.39708333 3.18,6.25583333 3.18,6.0775 C3.18,5.97083333 3.15166667,5.8825 3.095,5.8125 C3.03833333,5.7425 2.9625,5.6825 2.8675,5.6325 C2.7725,5.5825 2.66666667,5.54166667 2.55,5.51 L1.66,5.26 C1.20166667,5.13 0.855,4.92708333 0.62,4.65125 C0.385,4.37541667 0.2675,4.05083333 0.2675,3.6775 C0.2675,3.34416667 0.3525,3.05333333 0.5225,2.805 C0.6925,2.55666667 0.929166667,2.36291667 1.2325,2.22375 C1.53583333,2.08458333 1.88166667,2.015 2.27,2.015 C2.78333333,2.015 3.2375,2.13833333 3.6325,2.385 C4.0275,2.63166667 4.30666667,2.9775 4.47,3.4225 L3.4775,3.8875 C3.38416667,3.6425 3.2275,3.4475 3.0075,3.3025 C2.7875,3.1575 2.53916667,3.085 2.2625,3.085 C2.0425,3.085 1.86875,3.13416667 1.74125,3.2325 C1.61375,3.33083333 1.55,3.46166667 1.55,3.625 C1.55,3.725 1.57666667,3.81083333 1.63,3.8825 C1.68333333,3.95416667 1.75916667,4.01416667 1.8575,4.0625 C1.95583333,4.11083333 2.06666667,4.15333333 2.19,4.19 L3.065,4.45 C3.51333333,4.58166667 3.85791667,4.78208333 4.09875,5.05125 C4.33958333,5.32041667 4.46,5.6475 4.46,6.0325 C4.46,6.36083333 4.37333333,6.64916667 4.2,6.8975 C4.02666667,7.14583333 3.78666667,7.34 3.48,7.48 C3.17333333,7.62 2.81333333,7.69 2.4,7.69 Z" id="Path"></path>
        <path d="M8.125,7.69 C7.59333333,7.69 7.10958333,7.56708333 6.67375,7.32125 C6.23791667,7.07541667 5.89083333,6.73833333 5.6325,6.31 C5.37416667,5.88166667 5.245,5.395 5.245,4.85 C5.245,4.30166667 5.37375,3.815 5.63125,3.39 C5.88875,2.965 6.235,2.62958333 6.67,2.38375 C7.105,2.13791667 7.59,2.015 8.125,2.015 C8.66,2.015 9.14375,2.1375 9.57625,2.3825 C10.00875,2.6275 10.3533333,2.9625 10.61,3.3875 C10.8666667,3.8125 10.995,4.3 10.995,4.85 C10.995,5.39666667 10.8654167,5.88416667 10.60625,6.3125 C10.3470833,6.74083333 10.00125,7.0775 9.56875,7.3225 C9.13625,7.5675 8.655,7.69 8.125,7.69 Z M8.125,6.49 C8.42,6.49 8.68,6.42 8.905,6.28 C9.13,6.14 9.3075,5.94583333 9.4375,5.6975 C9.5675,5.44916667 9.6325,5.16666667 9.6325,4.85 C9.6325,4.53333333 9.5675,4.25291667 9.4375,4.00875 C9.3075,3.76458333 9.13,3.57125 8.905,3.42875 C8.68,3.28625 8.42,3.215 8.125,3.215 C7.83,3.215 7.56875,3.28625 7.34125,3.42875 C7.11375,3.57125 6.93458333,3.76458333 6.80375,4.00875 C6.67291667,4.25291667 6.6075,4.53333333 6.6075,4.85 C6.6075,5.16666667 6.67291667,5.44916667 6.80375,5.6975 C6.93458333,5.94583333 7.11375,6.14 7.34125,6.28 C7.56875,6.42 7.83,6.49 8.125,6.49 Z" id="Shape"></path>
        <path d="M14.6075,7.69 C14.0658333,7.69 13.58125,7.56541667 13.15375,7.31625 C12.72625,7.06708333 12.3879167,6.72708333 12.13875,6.29625 C11.8895833,5.86541667 11.765,5.38083333 11.765,4.8425 C11.765,4.30416667 11.8883333,3.82125 12.135,3.39375 C12.3816667,2.96625 12.72,2.62958333 13.15,2.38375 C13.58,2.13791667 14.0658333,2.015 14.6075,2.015 C14.9958333,2.015 15.3566667,2.0825 15.69,2.2175 C16.0233333,2.3525 16.3108333,2.53916667 16.5525,2.7775 C16.7941667,3.01583333 16.9691667,3.29583333 17.0775,3.6175 L15.9325,4.125 C15.8291667,3.84833333 15.6595833,3.6275 15.42375,3.4625 C15.1879167,3.2975 14.9158333,3.215 14.6075,3.215 C14.3241667,3.215 14.0708333,3.28458333 13.8475,3.42375 C13.6241667,3.56291667 13.4483333,3.75625 13.32,4.00375 C13.1916667,4.25125 13.1275,4.53416667 13.1275,4.8525 C13.1275,5.16916667 13.1916667,5.45125 13.32,5.69875 C13.4483333,5.94625 13.6241667,6.14 13.8475,6.28 C14.0708333,6.42 14.3241667,6.49 14.6075,6.49 C14.9208333,6.49 15.19375,6.4075 15.42625,6.2425 C15.65875,6.0775 15.8275,5.855 15.9325,5.575 L17.0775,6.095 C16.9741667,6.4 16.8016667,6.67333333 16.56,6.915 C16.3183333,7.15666667 16.0308333,7.34625 15.6975,7.48375 C15.3641667,7.62125 15.0008333,7.69 14.6075,7.69 Z" id="Path"></path>
        <path d="M18.0675,7.57 L18.0675,2.135 L19.38,2.135 L19.38,7.57 L18.0675,7.57 Z M18.0675,1.52 L18.0675,0.12 L19.38,0.12 L19.38,1.52 L18.0675,1.52 Z" id="Shape"></path>
        <path d="M22.245,7.69 C21.865,7.69 21.5341667,7.62625 21.2525,7.49875 C20.9708333,7.37125 20.7533333,7.19041667 20.6,6.95625 C20.4466667,6.72208333 20.37,6.44583333 20.37,6.1275 C20.37,5.8275 20.4375,5.56 20.5725,5.325 C20.7075,5.09 20.9154167,4.8925 21.19625,4.7325 C21.4770833,4.5725 21.8291667,4.45916667 22.2525,4.3925 L24.03,4.1025 L24.03,5.0975 L22.5,5.365 C22.2433333,5.41166667 22.05125,5.49375 21.92375,5.61125 C21.79625,5.72875 21.7325,5.88583333 21.7325,6.0825 C21.7325,6.2675 21.80375,6.41583333 21.94625,6.5275 C22.08875,6.63916667 22.2675,6.695 22.4825,6.695 C22.7591667,6.695 23.0016667,6.63541667 23.21,6.51625 C23.4183333,6.39708333 23.5804167,6.23541667 23.69625,6.03125 C23.8120833,5.82708333 23.87,5.60166667 23.87,5.355 L23.87,3.95 C23.87,3.715 23.7795833,3.52 23.59875,3.365 C23.4179167,3.21 23.1758333,3.1325 22.8725,3.1325 C22.5908333,3.1325 22.3429167,3.20791667 22.12875,3.35875 C21.9145833,3.50958333 21.7575,3.7075 21.6575,3.9525 L20.5875,3.4325 C20.6925,3.14583333 20.8595833,2.89666667 21.08875,2.685 C21.3179167,2.47333333 21.59,2.30875 21.905,2.19125 C22.22,2.07375 22.56,2.015 22.925,2.015 C23.3683333,2.015 23.7604167,2.09666667 24.10125,2.26 C24.4420833,2.42333333 24.7075,2.65 24.8975,2.94 C25.0875,3.23 25.1825,3.56666667 25.1825,3.95 L25.1825,7.57 L23.945,7.57 L23.945,6.6425 L24.2275,6.625 C24.0841667,6.855 23.9154167,7.04916667 23.72125,7.2075 C23.5270833,7.36583333 23.3070833,7.48583333 23.06125,7.5675 C22.8154167,7.64916667 22.5433333,7.69 22.245,7.69 Z" id="Path"></path>
        <path d="M28.0475,7.69 C27.6675,7.69 27.3366667,7.62625 27.055,7.49875 C26.7733333,7.37125 26.5558333,7.19041667 26.4025,6.95625 C26.2491667,6.72208333 26.1725,6.44583333 26.1725,6.1275 C26.1725,5.8275 26.24,5.56 26.375,5.325 C26.51,5.09 26.7179167,4.8925 26.99875,4.7325 C27.2795833,4.5725 27.6316667,4.45916667 28.055,4.3925 L29.8325,4.1025 L29.8325,5.0975 L28.3025,5.365 C28.0458333,5.41166667 27.85375,5.49375 27.72625,5.61125 C27.59875,5.72875 27.535,5.88583333 27.535,6.0825 C27.535,6.2675 27.60625,6.41583333 27.74875,6.5275 C27.89125,6.63916667 28.07,6.695 28.285,6.695 C28.5616667,6.695 28.8041667,6.63541667 29.0125,6.51625 C29.2208333,6.39708333 29.3829167,6.23541667 29.49875,6.03125 C29.6145833,5.82708333 29.6725,5.60166667 29.6725,5.355 L29.6725,3.95 C29.6725,3.715 29.5820833,3.52 29.40125,3.365 C29.2204167,3.21 28.9783333,3.1325 28.675,3.1325 C28.3933333,3.1325 28.1454167,3.20791667 27.93125,3.35875 C27.7170833,3.50958333 27.56,3.7075 27.46,3.9525 L26.39,3.4325 C26.495,3.14583333 26.6620833,2.89666667 26.89125,2.685 C27.1204167,2.47333333 27.3925,2.30875 27.7075,2.19125 C28.0225,2.07375 28.3625,2.015 28.7275,2.015 C29.1708333,2.015 29.5629167,2.09666667 29.90375,2.26 C30.2445833,2.42333333 30.51,2.65 30.7,2.94 C30.89,3.23 30.985,3.56666667 30.985,3.95 L30.985,7.57 L29.7475,7.57 L29.7475,6.6425 L30.03,6.625 C29.8866667,6.855 29.7179167,7.04916667 29.52375,7.2075 C29.3295833,7.36583333 29.1095833,7.48583333 28.86375,7.5675 C28.6179167,7.64916667 28.3458333,7.69 28.0475,7.69 Z" id="Path"></path>
        <polygon id="Path" points="32.195 7.57 32.195 0 33.5075 0 33.5075 7.57"></polygon>
        <polygon id="Path" points="36.4925 7.57 36.4925 0 37.805 0 37.805 7.57"></polygon>
        <path d="M41.675,7.69 C41.1433333,7.69 40.6595833,7.56708333 40.22375,7.32125 C39.7879167,7.07541667 39.4408333,6.73833333 39.1825,6.31 C38.9241667,5.88166667 38.795,5.395 38.795,4.85 C38.795,4.30166667 38.92375,3.815 39.18125,3.39 C39.43875,2.965 39.785,2.62958333 40.22,2.38375 C40.655,2.13791667 41.14,2.015 41.675,2.015 C42.21,2.015 42.69375,2.1375 43.12625,2.3825 C43.55875,2.6275 43.9033333,2.9625 44.16,3.3875 C44.4166667,3.8125 44.545,4.3 44.545,4.85 C44.545,5.39666667 44.4154167,5.88416667 44.15625,6.3125 C43.8970833,6.74083333 43.55125,7.0775 43.11875,7.3225 C42.68625,7.5675 42.205,7.69 41.675,7.69 Z M41.675,6.49 C41.97,6.49 42.23,6.42 42.455,6.28 C42.68,6.14 42.8575,5.94583333 42.9875,5.6975 C43.1175,5.44916667 43.1825,5.16666667 43.1825,4.85 C43.1825,4.53333333 43.1175,4.25291667 42.9875,4.00875 C42.8575,3.76458333 42.68,3.57125 42.455,3.42875 C42.23,3.28625 41.97,3.215 41.675,3.215 C41.38,3.215 41.11875,3.28625 40.89125,3.42875 C40.66375,3.57125 40.4845833,3.76458333 40.35375,4.00875 C40.2229167,4.25291667 40.1575,4.53333333 40.1575,4.85 C40.1575,5.16666667 40.2229167,5.44916667 40.35375,5.6975 C40.4845833,5.94583333 40.66375,6.14 40.89125,6.28 C41.11875,6.42 41.38,6.49 41.675,6.49 Z" id="Shape"></path>
        <polygon id="Path" points="45.535 7.57 45.535 0 46.8475 0 46.8475 4.9625 46.3475 4.815 48.9075 2.135 50.5375 2.135 48.5275 4.3225 50.5775 7.57 49.0775 7.57 47.3025 4.75 48.075 4.595 46.44 6.355 46.8475 5.5475 46.8475 7.57"></polygon>
        <path d="M53.7825,7.69 C53.2225,7.69 52.7320833,7.56333333 52.31125,7.31 C51.8904167,7.05666667 51.5633333,6.71416667 51.33,6.2825 C51.0966667,5.85083333 50.98,5.37 50.98,4.84 C50.98,4.295 51.0995833,3.81041667 51.33875,3.38625 C51.5779167,2.96208333 51.90125,2.6275 52.30875,2.3825 C52.71625,2.1375 53.1758333,2.015 53.6875,2.015 C54.1091667,2.015 54.4829167,2.08416667 54.80875,2.2225 C55.1345833,2.36083333 55.4104167,2.55291667 55.63625,2.79875 C55.8620833,3.04458333 56.0341667,3.32666667 56.1525,3.645 C56.2708333,3.96333333 56.33,4.305 56.33,4.67 C56.33,4.76666667 56.3254167,4.86416667 56.31625,4.9625 C56.3070833,5.06083333 56.2908333,5.14833333 56.2675,5.225 L52.0675,5.225 L52.0675,4.225 L55.5225,4.225 L54.9,4.69 C54.965,4.38333333 54.9520833,4.11 54.86125,3.87 C54.7704167,3.63 54.6229167,3.44 54.41875,3.3 C54.2145833,3.16 53.9708333,3.09 53.6875,3.09 C53.4091667,3.09 53.1645833,3.15916667 52.95375,3.2975 C52.7429167,3.43583333 52.5825,3.63625 52.4725,3.89875 C52.3625,4.16125 52.3191667,4.47833333 52.3425,4.85 C52.3141667,5.18666667 52.35875,5.48208333 52.47625,5.73625 C52.59375,5.99041667 52.7670833,6.18791667 52.99625,6.32875 C53.2254167,6.46958333 53.4925,6.54 53.7975,6.54 C54.0958333,6.54 54.3495833,6.47666667 54.55875,6.35 C54.7679167,6.22333333 54.9333333,6.055 55.055,5.845 L56.115,6.3575 C56.0083333,6.6175 55.84125,6.84791667 55.61375,7.04875 C55.38625,7.24958333 55.1170833,7.40666667 54.80625,7.52 C54.4954167,7.63333333 54.1541667,7.69 53.7825,7.69 Z" id="Path"></path>
        <path d="M59.805,7.63 C59.19,7.63 58.71375,7.46125 58.37625,7.12375 C58.03875,6.78625 57.87,6.3125 57.87,5.7025 L57.87,3.2975 L56.9325,3.2975 L56.9325,2.135 L57.0325,2.135 C57.2991667,2.135 57.5054167,2.06375 57.65125,1.92125 C57.7970833,1.77875 57.87,1.57416667 57.87,1.3075 L57.87,0.895 L59.1825,0.895 L59.1825,2.135 L60.4375,2.135 L60.4375,3.2975 L59.1825,3.2975 L59.1825,5.6275 C59.1825,5.8125 59.2141667,5.96833333 59.2775,6.095 C59.3408333,6.22166667 59.44125,6.3175 59.57875,6.3825 C59.71625,6.4475 59.89,6.48 60.1,6.48 C60.1483333,6.48 60.2041667,6.47666667 60.2675,6.47 C60.3308333,6.46333333 60.3941667,6.45666667 60.4575,6.45 L60.4575,7.57 C60.3625,7.585 60.255,7.59875 60.135,7.61125 C60.015,7.62375 59.905,7.63 59.805,7.63 Z" id="Path"></path>
      </g>
      <circle id="Oval" fill="#509E2F" cx="3.5" cy="4.5" r="3.5"></circle>
    </g>
  </g>
</svg>