<?xml version="1.0"?>

<svg version="1.1" id="Laag_1" xmlns="http://www.w3.org/2000/svg" xmlns:xlink="http://www.w3.org/1999/xlink" x="0px" y="0px" viewBox="0 0 552.76 215.43" style="enable-background:new 0 0 552.76 215.43;" xml:space="preserve">



<path d="M357.64,141.43c1.52,0,2.86-0.26,4.03-0.78c1.17-0.52,2.07-1.24,2.72-2.17c0.65-0.92,0.97-2,0.97-3.21&#xA;&#x9;c0-0.91-0.17-1.69-0.51-2.34c-0.34-0.65-0.93-1.24-1.75-1.79c-0.82-0.54-1.98-1.11-3.48-1.69c-1.11-0.43-1.92-0.77-2.43-1.03&#xA;&#x9;c-0.51-0.25-0.85-0.49-1.03-0.72c-0.18-0.23-0.27-0.52-0.27-0.87c0-0.51,0.21-0.89,0.63-1.16s1.01-0.4,1.77-0.4&#xA;&#x9;c1.52,0,2.72,0.54,3.61,1.63l2.81-2.09c-0.71-1.01-1.63-1.79-2.77-2.34c-1.14-0.54-2.42-0.82-3.84-0.82c-2.13,0-3.83,0.48-5.11,1.44&#xA;&#x9;c-1.28,0.96-1.92,2.23-1.92,3.8c0,1.34,0.47,2.47,1.41,3.38c0.94,0.91,2.56,1.81,4.86,2.7c1.32,0.51,2.18,0.92,2.58,1.23&#xA;&#x9;c0.4,0.32,0.61,0.74,0.61,1.27c0,0.66-0.28,1.21-0.84,1.65c-0.56,0.44-1.27,0.66-2.13,0.66c-0.74,0-1.46-0.19-2.17-0.57&#xA;&#x9;c-0.71-0.38-1.29-0.89-1.75-1.52l-3,2.09c0.51,1.09,1.39,1.96,2.64,2.62C354.55,141.1,356,141.43,357.64,141.43 M336.59,141.05h4.86&#xA;&#x9;v-8.32c0-1.27,0.32-2.45,0.95-3.55c0.63-1.1,1.48-1.98,2.53-2.64c1.05-0.66,2.18-0.99,3.4-0.99c0.51,0,0.81,0.03,0.91,0.08v-3.84&#xA;&#x9;c-0.46-0.08-0.84-0.11-1.14-0.11c-1.57,0-2.96,0.37-4.18,1.12c-1.22,0.75-2.07,1.74-2.55,2.98h-0.15v-0.38&#xA;&#x9;c0-1.24-0.05-2.36-0.15-3.34h-4.6c0.08,0.94,0.11,2.48,0.11,4.64V141.05z M328.61,130.03h-8.51c0.2-1.39,0.67-2.48,1.41-3.25&#xA;&#x9;c0.73-0.77,1.7-1.16,2.89-1.16c1.32,0,2.35,0.37,3.1,1.12c0.75,0.75,1.12,1.77,1.12,3.06V130.03z M333.36,131.59&#xA;&#x9;c0-3.12-0.78-5.55-2.34-7.3c-1.56-1.75-3.73-2.62-6.52-2.62c-2.91,0-5.2,0.89-6.86,2.66c-1.66,1.77-2.49,4.21-2.49,7.3&#xA;&#x9;c0,3.07,0.82,5.47,2.47,7.2c1.65,1.74,3.95,2.6,6.92,2.6c1.77,0,3.4-0.37,4.88-1.1c1.48-0.73,2.59-1.71,3.33-2.93l-2.62-2.51&#xA;&#x9;c-0.79,0.89-1.59,1.52-2.41,1.9c-0.82,0.38-1.79,0.57-2.91,0.57c-2.71,0-4.27-1.34-4.67-4.03h13.22V131.59z M283.62,141.05h4.83&#xA;&#x9;v-11.06c0-1.29,0.35-2.35,1.05-3.17c0.7-0.82,1.59-1.24,2.68-1.24c1.01,0,1.8,0.39,2.36,1.16c0.56,0.77,0.84,1.86,0.84,3.25v11.06&#xA;&#x9;h4.79v-11.17c0-1.32,0.34-2.36,1.01-3.13c0.67-0.77,1.56-1.16,2.68-1.16c1.01,0,1.81,0.37,2.39,1.12c0.58,0.75,0.87,1.79,0.87,3.13&#xA;&#x9;v11.21h4.83v-11.74c0-2.38-0.6-4.25-1.8-5.6c-1.2-1.36-2.86-2.03-4.96-2.03c-1.29,0-2.46,0.3-3.5,0.89&#xA;&#x9;c-1.04,0.6-1.81,1.41-2.32,2.45c-0.33-1.04-0.98-1.86-1.94-2.45c-0.96-0.59-2.13-0.89-3.5-0.89c-1.42,0-2.66,0.33-3.72,0.99&#xA;&#x9;c-1.06,0.66-1.8,1.56-2.2,2.7h-0.08c0-1.19-0.06-2.29-0.19-3.31h-4.26c0.1,0.84,0.15,2.52,0.15,5.05V141.05z M268.76,141.05h4.86&#xA;&#x9;v-8.32c0-1.27,0.32-2.45,0.95-3.55c0.63-1.1,1.48-1.98,2.53-2.64c1.05-0.66,2.18-0.99,3.4-0.99c0.51,0,0.81,0.03,0.91,0.08v-3.84&#xA;&#x9;c-0.46-0.08-0.84-0.11-1.14-0.11c-1.57,0-2.96,0.37-4.18,1.12c-1.22,0.75-2.07,1.74-2.55,2.98h-0.15v-0.38&#xA;&#x9;c0-1.24-0.05-2.36-0.15-3.34h-4.6c0.08,0.94,0.11,2.48,0.11,4.64V141.05z M260.78,130.03h-8.51c0.2-1.39,0.67-2.48,1.41-3.25&#xA;&#x9;c0.73-0.77,1.7-1.16,2.89-1.16c1.32,0,2.35,0.37,3.1,1.12c0.75,0.75,1.12,1.77,1.12,3.06V130.03z M265.53,131.59&#xA;&#x9;c0-3.12-0.78-5.55-2.34-7.3c-1.56-1.75-3.73-2.62-6.52-2.62c-2.91,0-5.2,0.89-6.86,2.66c-1.66,1.77-2.49,4.21-2.49,7.3&#xA;&#x9;c0,3.07,0.82,5.47,2.47,7.2c1.65,1.74,3.95,2.6,6.92,2.6c1.77,0,3.4-0.37,4.88-1.1c1.48-0.73,2.59-1.71,3.32-2.93l-2.62-2.51&#xA;&#x9;c-0.79,0.89-1.59,1.52-2.41,1.9c-0.82,0.38-1.79,0.57-2.91,0.57c-2.71,0-4.27-1.34-4.67-4.03h13.22V131.59z M226.4,141.05h4.86&#xA;&#x9;v-10.34c0-1.67,0.42-2.99,1.25-3.97c0.84-0.97,1.95-1.46,3.34-1.46c1.12,0,1.99,0.42,2.62,1.25c0.63,0.84,0.95,1.99,0.95,3.46v11.06&#xA;&#x9;h4.86v-11.4c0-2.48-0.65-4.43-1.96-5.85c-1.31-1.42-3.04-2.13-5.19-2.13c-1.24,0-2.39,0.24-3.44,0.7c-1.05,0.47-1.87,1.11-2.45,1.92&#xA;&#x9;v-11.44h-4.86V141.05z M216.36,141.43c1.77,0,3.32-0.33,4.64-0.99c1.32-0.66,2.33-1.6,3.04-2.81l-2.93-2.55&#xA;&#x9;c-0.51,0.81-1.15,1.45-1.94,1.92c-0.79,0.47-1.65,0.7-2.58,0.7c-1.52,0-2.71-0.54-3.57-1.63c-0.86-1.09-1.29-2.6-1.29-4.52&#xA;&#x9;c0-1.93,0.43-3.43,1.29-4.52c0.86-1.09,2.05-1.63,3.57-1.63c0.94,0,1.81,0.23,2.6,0.68c0.8,0.46,1.44,1.1,1.92,1.94l2.93-2.55&#xA;&#x9;c-0.71-1.22-1.72-2.15-3.04-2.81c-1.32-0.66-2.86-0.99-4.64-0.99c-2.94,0-5.25,0.87-6.93,2.62c-1.68,1.75-2.53,4.17-2.53,7.26&#xA;&#x9;c0,3.07,0.84,5.48,2.53,7.24C211.11,140.55,213.42,141.43,216.36,141.43 M197.14,141.43c1.52,0,2.86-0.26,4.03-0.78&#xA;&#x9;c1.16-0.52,2.07-1.24,2.72-2.17c0.65-0.92,0.97-2,0.97-3.21c0-0.91-0.17-1.69-0.51-2.34c-0.34-0.65-0.93-1.24-1.75-1.79&#xA;&#x9;c-0.82-0.54-1.98-1.11-3.48-1.69c-1.12-0.43-1.93-0.77-2.43-1.03c-0.51-0.25-0.85-0.49-1.03-0.72c-0.18-0.23-0.27-0.52-0.27-0.87&#xA;&#x9;c0-0.51,0.21-0.89,0.63-1.16s1.01-0.4,1.77-0.4c1.52,0,2.72,0.54,3.61,1.63l2.81-2.09c-0.71-1.01-1.63-1.79-2.77-2.34&#xA;&#x9;c-1.14-0.54-2.42-0.82-3.84-0.82c-2.13,0-3.83,0.48-5.11,1.44c-1.28,0.96-1.92,2.23-1.92,3.8c0,1.34,0.47,2.47,1.41,3.38&#xA;&#x9;c0.94,0.91,2.56,1.81,4.86,2.7c1.32,0.51,2.18,0.92,2.58,1.23c0.4,0.32,0.61,0.74,0.61,1.27c0,0.66-0.28,1.21-0.84,1.65&#xA;&#x9;c-0.56,0.44-1.27,0.66-2.13,0.66c-0.74,0-1.46-0.19-2.17-0.57c-0.71-0.38-1.29-0.89-1.75-1.52l-3,2.09&#xA;&#x9;c0.51,1.09,1.39,1.96,2.64,2.62C194.04,141.1,195.49,141.43,197.14,141.43 M182.43,130.03h-8.51c0.2-1.39,0.67-2.48,1.41-3.25&#xA;&#x9;c0.73-0.77,1.7-1.16,2.89-1.16c1.32,0,2.35,0.37,3.1,1.12c0.75,0.75,1.12,1.77,1.12,3.06V130.03z M187.18,131.59&#xA;&#x9;c0-3.12-0.78-5.55-2.34-7.3s-3.73-2.62-6.52-2.62c-2.91,0-5.2,0.89-6.86,2.66c-1.66,1.77-2.49,4.21-2.49,7.3&#xA;&#x9;c0,3.07,0.82,5.47,2.47,7.2c1.65,1.74,3.95,2.6,6.92,2.6c1.77,0,3.4-0.37,4.88-1.1c1.48-0.73,2.59-1.71,3.32-2.93l-2.62-2.51&#xA;&#x9;c-0.79,0.89-1.59,1.52-2.41,1.9c-0.82,0.38-1.79,0.57-2.91,0.57c-2.71,0-4.27-1.34-4.67-4.03h13.22V131.59z M157.77,137.7&#xA;&#x9;c-1.34,0-2.41-0.39-3.21-1.16c-0.8-0.77-1.2-1.79-1.2-3.06v-3.91c0-1.24,0.42-2.27,1.25-3.08c0.84-0.81,1.89-1.22,3.15-1.22&#xA;&#x9;c1.34,0,2.37,0.52,3.08,1.56c0.71,1.04,1.06,2.53,1.06,4.48c0,2.05-0.35,3.63-1.06,4.73C160.14,137.15,159.11,137.7,157.77,137.7&#xA;&#x9; M158.72,141.43c2.48,0,4.44-0.9,5.87-2.72c1.43-1.81,2.15-4.3,2.15-7.47c0-2.99-0.69-5.33-2.07-7.03c-1.38-1.7-3.29-2.55-5.72-2.55&#xA;&#x9;c-2.58,0-4.42,0.77-5.51,2.32h-0.08v-11.13h-4.83v23.14c0,2.63-0.04,4.32-0.11,5.05h4.56c0.02-0.46,0.04-1.29,0.04-2.51h0.08&#xA;&#x9;c0.58,0.86,1.39,1.56,2.41,2.09C156.53,141.16,157.6,141.43,158.72,141.43 M137.82,141.43c1.52,0,2.86-0.26,4.03-0.78&#xA;&#x9;c1.17-0.52,2.07-1.24,2.72-2.17c0.65-0.92,0.97-2,0.97-3.21c0-0.91-0.17-1.69-0.51-2.34s-0.93-1.24-1.75-1.79&#xA;&#x9;c-0.82-0.54-1.98-1.11-3.48-1.69c-1.11-0.43-1.92-0.77-2.43-1.03c-0.51-0.25-0.85-0.49-1.03-0.72c-0.18-0.23-0.27-0.52-0.27-0.87&#xA;&#x9;c0-0.51,0.21-0.89,0.63-1.16s1.01-0.4,1.77-0.4c1.52,0,2.72,0.54,3.61,1.63l2.81-2.09c-0.71-1.01-1.63-1.79-2.77-2.34&#xA;&#x9;c-1.14-0.54-2.42-0.82-3.84-0.82c-2.13,0-3.83,0.48-5.11,1.44c-1.28,0.96-1.92,2.23-1.92,3.8c0,1.34,0.47,2.47,1.41,3.38&#xA;&#x9;c0.94,0.91,2.56,1.81,4.86,2.7c1.32,0.51,2.18,0.92,2.58,1.23c0.4,0.32,0.61,0.74,0.61,1.27c0,0.66-0.28,1.21-0.84,1.65&#xA;&#x9;c-0.56,0.44-1.27,0.66-2.13,0.66c-0.74,0-1.46-0.19-2.17-0.57c-0.71-0.38-1.29-0.89-1.75-1.52l-3,2.09&#xA;&#x9;c0.51,1.09,1.39,1.96,2.64,2.62C134.72,141.1,136.17,141.43,137.82,141.43 M110.19,141.05h4.86v-10.37c0-1.49,0.42-2.72,1.27-3.67&#xA;&#x9;c0.85-0.95,1.94-1.43,3.29-1.43c1.17,0,2.01,0.38,2.55,1.14c0.53,0.76,0.8,1.96,0.8,3.61v10.72h4.83v-10.68&#xA;&#x9;c0-2.86-0.56-5.03-1.67-6.5c-1.11-1.47-2.76-2.2-4.94-2.2c-1.42,0-2.71,0.34-3.86,1.01c-1.15,0.67-1.96,1.56-2.41,2.68h-0.11&#xA;&#x9;c0-1.14-0.06-2.24-0.19-3.31h-4.56c0.1,1.04,0.15,2.71,0.15,5.02V141.05z M100.81,141.05h4.83v-19h-4.83V141.05z M103.2,119.84&#xA;&#x9;c0.96,0,1.72-0.26,2.28-0.78c0.56-0.52,0.84-1.21,0.84-2.07c0-0.86-0.29-1.55-0.86-2.07c-0.57-0.52-1.32-0.78-2.26-0.78&#xA;&#x9;c-0.94,0-1.68,0.26-2.24,0.78c-0.56,0.52-0.84,1.21-0.84,2.07c0,0.86,0.28,1.55,0.84,2.07C101.52,119.59,102.26,119.84,103.2,119.84&#xA;&#x9; M80.74,141.05h16.49v-3.65H86.79l10.03-13v-2.36H81.28v3.65h9.65l-10.18,12.77V141.05z M74.02,130.03h-8.51&#xA;&#x9;c0.2-1.39,0.67-2.48,1.41-3.25c0.74-0.77,1.7-1.16,2.89-1.16c1.32,0,2.35,0.37,3.1,1.12c0.75,0.75,1.12,1.77,1.12,3.06V130.03z&#xA;&#x9; M78.77,131.59c0-3.12-0.78-5.55-2.34-7.3s-3.73-2.62-6.52-2.62c-2.91,0-5.2,0.89-6.86,2.66c-1.66,1.77-2.49,4.21-2.49,7.3&#xA;&#x9;c0,3.07,0.82,5.47,2.47,7.2c1.65,1.74,3.95,2.6,6.92,2.6c1.77,0,3.4-0.37,4.88-1.1c1.48-0.73,2.59-1.71,3.32-2.93l-2.62-2.51&#xA;&#x9;c-0.78,0.89-1.59,1.52-2.41,1.9c-0.82,0.38-1.79,0.57-2.91,0.57c-2.71,0-4.27-1.34-4.67-4.03h13.22V131.59z M46.32,126.61v3.88h5.78&#xA;&#x9;v5.7c-1.34,0.81-2.85,1.22-4.52,1.22c-2.08,0-3.66-0.82-4.75-2.45c-1.09-1.63-1.63-4.03-1.63-7.2c0-3.01,0.59-5.32,1.77-6.92&#xA;&#x9;c1.18-1.6,2.88-2.39,5.11-2.39c1.32,0,2.49,0.26,3.51,0.78c1.03,0.52,1.86,1.27,2.49,2.26l3.12-2.74c-0.74-1.47-1.91-2.61-3.51-3.44&#xA;&#x9;c-1.61-0.82-3.49-1.24-5.64-1.24c-2.48,0-4.65,0.56-6.5,1.67c-1.85,1.12-3.28,2.71-4.29,4.77c-1.01,2.06-1.52,4.48-1.52,7.24&#xA;&#x9;c0,4.31,0.98,7.66,2.93,10.07c1.95,2.41,4.69,3.61,8.21,3.61c2.28,0,4.28-0.62,6-1.86l0.49,1.48h4.14v-14.44H46.32z M10.9,137.02&#xA;&#x9;c-1.49,0-2.67-0.35-3.53-1.06c-0.86-0.71-1.29-1.68-1.29-2.93c0-0.71,0.16-1.4,0.49-2.07c0.33-0.67,0.8-1.27,1.41-1.81&#xA;&#x9;c0.15,0.2,0.28,0.36,0.38,0.46c1.67,1.98,3.84,4.12,6.5,6.42C13.69,136.69,12.37,137.02,10.9,137.02 M10.94,118.02&#xA;&#x9;c0.66,0,1.17,0.2,1.54,0.59c0.37,0.39,0.55,0.93,0.55,1.61c0,0.74-0.22,1.49-0.66,2.26c-0.44,0.77-1.08,1.51-1.92,2.22&#xA;&#x9;c-1.22-1.77-1.82-3.22-1.82-4.33c0-0.73,0.21-1.31,0.63-1.73C9.67,118.23,10.23,118.02,10.94,118.02 M24.54,137.89l-2.89-2.32&#xA;&#x9;c1.47-2.15,2.28-4.62,2.43-7.41h-4.67c-0.2,1.72-0.65,3.22-1.33,4.48c-2.38-2-4.19-3.74-5.43-5.21c3.52-2.03,5.28-4.46,5.28-7.3&#xA;&#x9;c0-1.19-0.3-2.24-0.89-3.15c-0.6-0.91-1.43-1.63-2.51-2.15c-1.08-0.52-2.3-0.78-3.67-0.78c-1.39,0-2.63,0.27-3.7,0.8&#xA;&#x9;c-1.08,0.53-1.92,1.27-2.53,2.22c-0.61,0.95-0.91,2.03-0.91,3.25c0,1.65,0.62,3.5,1.86,5.55c-1.6,0.86-2.84,1.94-3.74,3.23&#xA;&#x9;c-0.9,1.29-1.35,2.69-1.35,4.18c0,1.6,0.41,3.01,1.24,4.24c0.82,1.23,2,2.18,3.51,2.87c1.52,0.68,3.27,1.03,5.24,1.03&#xA;&#x9;c2.94,0,5.56-0.81,7.87-2.43c0.71,0.56,1.77,1.37,3.19,2.43L24.54,137.89z"></path>
<path d="M354.34,90.61h11.17v-3.34h-11.17V90.61z M342.26,95.7c-1.34,0-2.37-0.55-3.08-1.65c-0.71-1.1-1.06-2.68-1.06-4.73&#xA;&#x9;c0-1.95,0.35-3.44,1.06-4.48c0.71-1.04,1.73-1.56,3.08-1.56c1.27,0,2.32,0.41,3.15,1.22c0.84,0.81,1.25,1.84,1.25,3.08v3.91&#xA;&#x9;c0,1.27-0.4,2.29-1.2,3.06C344.67,95.32,343.6,95.7,342.26,95.7 M341.31,99.43c1.11,0,2.18-0.27,3.21-0.8&#xA;&#x9;c1.03-0.53,1.83-1.23,2.41-2.09h0.08c0,1.24,0.01,2.08,0.04,2.51h4.56c-0.08-0.73-0.11-2.42-0.11-5.05V70.85h-4.83v11.13h-0.08&#xA;&#x9;c-0.63-0.79-1.38-1.37-2.22-1.75c-0.85-0.38-1.83-0.57-2.95-0.57c-1.65,0-3.08,0.39-4.31,1.18c-1.23,0.79-2.17,1.9-2.83,3.34&#xA;&#x9;c-0.66,1.44-0.99,3.13-0.99,5.05c0,3.17,0.71,5.66,2.15,7.47C336.87,98.52,338.82,99.43,341.31,99.43 M325.57,90.8&#xA;&#x9;c0,1.47-0.36,2.6-1.06,3.4c-0.71,0.8-1.74,1.2-3.08,1.2c-1.44,0-2.54-0.51-3.29-1.52c-0.75-1.01-1.12-2.51-1.12-4.48&#xA;&#x9;c0-1.98,0.38-3.49,1.14-4.54c0.76-1.05,1.85-1.58,3.27-1.58c1.34,0,2.37,0.44,3.08,1.31c0.71,0.87,1.06,2.14,1.06,3.78V90.8z&#xA;&#x9; M326.37,80.05l-0.38,2.39h-0.08c-1.19-1.85-3.1-2.77-5.74-2.77c-2.53,0-4.5,0.84-5.89,2.53c-1.39,1.68-2.09,4.05-2.09,7.09&#xA;&#x9;c0,3.14,0.73,5.57,2.18,7.3c1.46,1.72,3.5,2.58,6.14,2.58c1.22,0,2.27-0.18,3.15-0.55c0.89-0.37,1.58-0.89,2.09-1.58v0.61&#xA;&#x9;c0,2.18-0.42,3.81-1.25,4.88c-0.84,1.08-2.12,1.61-3.84,1.61c-0.91,0-1.88-0.13-2.89-0.4c-1.01-0.27-1.98-0.63-2.89-1.08l-1.63,3.31&#xA;&#x9;c1.01,0.66,2.17,1.17,3.48,1.52c1.3,0.35,2.69,0.53,4.16,0.53c3.14,0,5.51-0.82,7.11-2.45c1.6-1.63,2.39-4.06,2.39-7.28V80.05&#xA;&#x9;H326.37z M298.33,99.43c1.44,0,2.73-0.34,3.86-1.01c1.13-0.67,1.92-1.58,2.38-2.72h0.08c0.02,1.09,0.14,2.2,0.34,3.34h4.6&#xA;&#x9;c-0.2-1.92-0.3-3.53-0.3-4.83V80.05h-4.86v10.11c0,1.52-0.43,2.79-1.29,3.82s-1.96,1.54-3.31,1.54c-1.12,0-1.94-0.38-2.47-1.14&#xA;&#x9;c-0.53-0.76-0.8-1.95-0.8-3.57V80.05h-4.86v10.72c0,2.84,0.56,4.99,1.69,6.46C294.5,98.69,296.15,99.43,298.33,99.43 M283.93,88.03&#xA;&#x9;h-8.51c0.2-1.39,0.67-2.48,1.41-3.25c0.73-0.77,1.7-1.16,2.89-1.16c1.32,0,2.35,0.37,3.1,1.12c0.75,0.75,1.12,1.77,1.12,3.06V88.03z&#xA;&#x9; M288.68,89.59c0-3.12-0.78-5.55-2.34-7.3c-1.56-1.75-3.73-2.62-6.52-2.62c-2.91,0-5.2,0.89-6.86,2.66&#xA;&#x9;c-1.66,1.77-2.49,4.21-2.49,7.3c0,3.07,0.82,5.47,2.47,7.2c1.65,1.74,3.95,2.6,6.92,2.6c1.77,0,3.4-0.37,4.88-1.1&#xA;&#x9;c1.48-0.73,2.59-1.71,3.33-2.93l-2.62-2.51c-0.79,0.89-1.59,1.52-2.41,1.9c-0.82,0.38-1.79,0.57-2.91,0.57&#xA;&#x9;c-2.71,0-4.27-1.34-4.67-4.03h13.22V89.59z M258.05,99.43c2.94,0,5.12-0.73,6.54-2.2c1.42-1.47,2.13-3.71,2.13-6.73V72.45h-5.47&#xA;&#x9;v17.44c0,1.82-0.27,3.14-0.8,3.95c-0.53,0.81-1.42,1.22-2.66,1.22c-0.86,0-1.71-0.18-2.55-0.53c-0.84-0.35-1.61-0.86-2.32-1.52&#xA;&#x9;l-2.17,3.69c0.89,0.86,1.97,1.53,3.25,2.01C255.28,99.19,256.63,99.43,258.05,99.43 M235.78,88.03h-8.51&#xA;&#x9;c0.2-1.39,0.67-2.48,1.41-3.25c0.73-0.77,1.7-1.16,2.89-1.16c1.32,0,2.35,0.37,3.1,1.12c0.75,0.75,1.12,1.77,1.12,3.06V88.03z&#xA;&#x9; M240.53,89.59c0-3.12-0.78-5.55-2.34-7.3s-3.73-2.62-6.52-2.62c-2.91,0-5.2,0.89-6.86,2.66c-1.66,1.77-2.49,4.21-2.49,7.3&#xA;&#x9;c0,3.07,0.82,5.47,2.47,7.2c1.65,1.74,3.95,2.6,6.92,2.6c1.77,0,3.4-0.37,4.88-1.1c1.48-0.73,2.59-1.71,3.32-2.93l-2.62-2.51&#xA;&#x9;c-0.79,0.89-1.59,1.52-2.41,1.9c-0.82,0.38-1.79,0.57-2.91,0.57c-2.71,0-4.27-1.34-4.67-4.03h13.22V89.59z M204.77,94.68V76.82h3.91&#xA;&#x9;c2,0,3.43,0.65,4.29,1.96c0.86,1.31,1.29,3.46,1.29,6.48c0,2.28-0.2,4.1-0.59,5.47c-0.39,1.37-1.02,2.37-1.88,3&#xA;&#x9;c-0.86,0.63-2.01,0.95-3.46,0.95H204.77z M199.3,99.05h8.47c2.86,0,5.16-0.47,6.9-1.41c1.74-0.94,3.01-2.41,3.82-4.43&#xA;&#x9;c0.81-2.01,1.22-4.67,1.22-7.96c0-8.54-3.64-12.81-10.91-12.81h-9.5V99.05z"></path>
<path class="st0" d="M447.73,122.45l-9.3,9.3l37.19,37.19l9.3-9.3L447.73,122.45z M465.79,36.65c0-9.98-8.1-18.08-18.08-18.08&#xA;&#x9;s-18.08,8.09-18.08,18.08c0,9.99,8.1,18.08,18.08,18.08S465.79,46.64,465.79,36.65 M512.82,131.75l9.3-9.3l-37.19-37.19l-9.3-9.3&#xA;&#x9;l-4.65-4.66h0c-12.84-12.84-33.65-12.84-46.49,0c-12.84,12.84-12.84,33.66,0,46.48l4.65,4.66l9.3-9.3l-4.65-4.66&#xA;&#x9;c-7.7-7.7-7.7-20.19,0-27.89c7.7-7.7,20.19-7.7,27.89,0l4.65,4.66l9.3,9.3L512.82,131.75z M550.01,150.34l-9.3-9.3l-9.3-9.3&#xA;&#x9;l-9.3,9.3l9.3,9.3l-46.49,46.5l-9.3,9.3l9.3,9.3l9.3-9.3l46.49-46.5L550.01,150.34z"></path>
<path class="st1" d="M475.62,94.56l-9.3-9.3l-27.9,27.89l-9.3,9.3l-9.3,9.3l-9.3,9.3l9.3,9.3l55.79,55.8l9.3-9.3l-55.79-55.8&#xA;&#x9;l9.3-9.3l9.3-9.3L475.62,94.56z M535.83,23.01c0-12.7-10.3-23.01-23.01-23.01C500.1,0,489.8,10.31,489.8,23.01&#xA;&#x9;c0,12.7,10.3,23.02,23.01,23.02C525.52,46.03,535.83,35.72,535.83,23.01 M540.71,66.65c-15.41-15.41-40.38-15.41-55.79,0l-9.3,9.31&#xA;&#x9;l9.3,9.3l9.3-9.3c10.27-10.28,26.92-10.28,37.19,0c10.27,10.26,10.27,26.92,0,37.19h0l-9.3,9.3l-9.3,9.3l-27.89,27.89l-9.3,9.3&#xA;&#x9;l9.3,9.31l9.3-9.31l27.89-27.89l9.3-9.3l9.3-9.3C556.12,107.04,556.12,82.06,540.71,66.65"></path>
</svg>