<svg xmlns="http://www.w3.org/2000/svg" xmlns:xlink="http://www.w3.org/1999/xlink" width="955" height="512" viewBox="0 0 955 512">
  <defs>
     
    <clipPath id="clip-logo">
      <rect width="955" height="512"></rect>
    </clipPath>
  </defs>
  <g id="logo" clip-path="url(#clip-logo)">
    <g id="logo-2" data-name="logo" transform="translate(10 11.196)">
      <path id="Path_3770" data-name="Path 3770" d="M6.844,80.045A14.811,14.811,0,0,0,0,92.68V474.348a15.278,15.278,0,0,0,15.267,15.267H382.721a15.278,15.278,0,0,0,15.267-15.267V74.255c0-5.791-3.685-11.055-8.949-13.687L314.81,25.822a15.623,15.623,0,0,0-20,6.844c-3.159,5.791-1.579,12.635,2.106,17.372A45.152,45.152,0,0,1,309.019,81.1c0,15.793-8.949,27.9-16.32,35.271l-82.124,81.6c-4.738,4.738-12.635,4.738-16.846,0l-83.7-87.389a46.365,46.365,0,0,1-12.635-35.8C98.97,50.565,119.5,30.56,144.244,30.034A47.978,47.978,0,0,1,193.2,77.94v35.8L150.035,68.99a14.66,14.66,0,0,0-21.584,0c-5.791,5.791-5.264,15.793,0,21.584L191.1,155.853a14.337,14.337,0,0,0,11.055,4.738h0a15.651,15.651,0,0,0,10.529-4.212l61.067-61.067c5.791-5.791,6.844-15.267,1.053-21.584a15.105,15.105,0,0,0-21.584-.526L223.21,102.682V79.519c0-42.641-33.692-78.966-76.334-79.492A76.908,76.908,0,0,0,99.5,14.767Z" transform="translate(0 0)" fill="#1b9ad7"></path>
      <g id="Group_11129" data-name="Group 11129" transform="translate(71.069 256.929)">
        <path id="Path_3771" data-name="Path 3771" d="M80.1,139.115a23.6,23.6,0,0,1-26.848-18.425,3.937,3.937,0,0,1,3.685-4.738h6.844a3.959,3.959,0,0,1,3.685,2.632c1.579,3.685,5.264,6.844,9.476,6.317,4.738-.526,7.9-4.738,7.9-9.476v-1.053L62.729,107A15.173,15.173,0,0,1,52.2,92.788h0c0-12.108,8.949-23.163,21.584-24.216C85.892,67.519,96.947,75.942,99.053,87a3.937,3.937,0,0,1-3.685,4.738H88.524A3.959,3.959,0,0,1,84.839,89.1c-1.579-3.685-5.264-6.844-9.476-6.317a9.641,9.641,0,0,0-8.423,9.476v1.053l22.11,7.37A15.173,15.173,0,0,1,99.579,114.9h0A24.414,24.414,0,0,1,80.1,139.115Z" transform="translate(151.532 35.136)" fill="#fff"></path>
        <path id="Path_3772" data-name="Path 3772" d="M56.142,48.9a3.874,3.874,0,0,1,4.211,4.212V85.751c0,4.738-1.579,8.949-3.685,13.161L46.139,117.337a3.974,3.974,0,0,1-3.685,2.106H31.4a3.974,3.974,0,0,1-3.685-2.106L17.185,98.912A23.761,23.761,0,0,1,13.5,85.751V53.111A3.874,3.874,0,0,1,17.711,48.9h6.317a3.874,3.874,0,0,1,4.212,4.212V85.751a4.746,4.746,0,0,0,.526,2.632L37.19,103.65l8.423-15.267V53.111a4.55,4.55,0,0,1,1.579-3.159c1.053-.526,1.579-1.053,2.632-1.053Z" transform="translate(-13.5 -48.374)" fill="#fff"></path>
        <path id="Path_3773" data-name="Path 3773" d="M55.433,48.8a3.874,3.874,0,0,1,4.211,4.212v6.317a3.874,3.874,0,0,1-4.211,4.212H39.114V77.228h16.32a3.874,3.874,0,0,1,4.211,4.211v6.317a3.874,3.874,0,0,1-4.211,4.211H39.114v13.687h16.32a3.874,3.874,0,0,1,4.211,4.212v6.317a3.874,3.874,0,0,1-4.211,4.211H32.27a7.2,7.2,0,0,1-7.37-7.37V56.17a7.2,7.2,0,0,1,7.37-7.37Z" transform="translate(35.114 -48.8)" fill="#fff"></path>
        <path id="Path_3774" data-name="Path 3774" d="M44.429,48.8a4.021,4.021,0,0,1,2.632,1.053c1.053,1.053,1.579,1.579,1.579,3.159v62.646a3.874,3.874,0,0,1-4.212,4.212H38.111a3.874,3.874,0,0,1-4.211-4.212V53.012A3.874,3.874,0,0,1,38.111,48.8Z" transform="translate(73.493 -48.8)" fill="#fff"></path>
        <path id="Path_3775" data-name="Path 3775" d="M69.733,105.655a3.874,3.874,0,0,1,4.211,4.212v6.317a4.021,4.021,0,0,1-1.053,2.632,3.183,3.183,0,0,1-3.159,1.579H46.57a7.2,7.2,0,0,1-7.37-7.37V53.012A3.874,3.874,0,0,1,43.411,48.8h6.317a4.021,4.021,0,0,1,2.632,1.053c1.053,1.053,1.579,1.579,1.579,3.159v52.117l15.793.526Z" transform="translate(96.095 -48.8)" fill="#fff"></path>
        <path id="Path_3776" data-name="Path 3776" d="M58.429,48.8a4.021,4.021,0,0,1,2.632,1.053c1.053,1.053,1.579,1.579,1.579,3.159v62.646a3.874,3.874,0,0,1-4.212,4.212H52.111a3.874,3.874,0,0,1-4.212-4.212V53.012A3.874,3.874,0,0,1,52.111,48.8Z" transform="translate(133.195 -48.8)" fill="#fff"></path>
        <path id="Path_3777" data-name="Path 3777" d="M49.045,68.5a3.874,3.874,0,0,1,4.212,4.212v6.317a3.874,3.874,0,0,1-4.212,4.211h-7.9v52.117A4.021,4.021,0,0,1,40.1,137.99c-1.053,1.053-1.579,1.579-3.159,1.579H30.62a4.55,4.55,0,0,1-3.159-1.579c-.526-1.053-1.053-1.579-1.053-2.632V83.24h-7.9A3.875,3.875,0,0,1,14.3,79.029V72.711A3.874,3.874,0,0,1,18.512,68.5Z" transform="translate(-10.088 35.208)" fill="#fff"></path>
        <path id="Path_3778" data-name="Path 3778" d="M67.168,68.926a3.874,3.874,0,0,1,4.211,4.212v62.646A3.874,3.874,0,0,1,67.168,140H60.851a4.021,4.021,0,0,1-2.632-1.053c-1.053-1.053-1.579-1.579-1.579-3.159V111.568H38.74v24.216A3.874,3.874,0,0,1,34.529,140H28.212A3.874,3.874,0,0,1,24,135.784V72.612A3.874,3.874,0,0,1,28.212,68.4h6.317a3.874,3.874,0,0,1,4.212,4.212V96.828h17.9V72.612a4.55,4.55,0,0,1,1.579-3.159A2.9,2.9,0,0,1,60.851,68.4l6.317.526Z" transform="translate(31.276 34.782)" fill="#fff"></path>
        <path id="Path_3779" data-name="Path 3779" d="M78.242,68.5a3.874,3.874,0,0,1,4.211,4.211v43.168a22.687,22.687,0,0,1-1.579,8.949,23.73,23.73,0,0,1-5.264,7.37,37.368,37.368,0,0,1-7.37,5.264c-3.159,1.053-6.317,2.106-9.476,2.106a24.59,24.59,0,0,1-8.949-1.579,23.729,23.729,0,0,1-7.37-5.264,37.369,37.369,0,0,1-5.264-7.37,26.739,26.739,0,0,1-1.579-8.949V73.238a4.55,4.55,0,0,1,1.579-3.159,2.9,2.9,0,0,1,2.632-1.053h6.317a3.875,3.875,0,0,1,4.212,4.212v43.168a11.088,11.088,0,0,0,2.632,6.844,8.9,8.9,0,0,0,12.635,0,9.094,9.094,0,0,0,2.632-6.844V73.238a3.875,3.875,0,0,1,4.212-4.212h5.791S78.242,68.5,78.242,68.5Z" transform="translate(80.743 35.208)" fill="#fff"></path>
        <path id="Path_3780" data-name="Path 3780" d="M57.729,68.5a4.021,4.021,0,0,1,2.632,1.053c1.053,1.053,1.579,1.579,1.579,3.159v62.646a3.875,3.875,0,0,1-4.211,4.212H51.412a3.875,3.875,0,0,1-4.212-4.212V72.711A3.874,3.874,0,0,1,51.412,68.5Z" transform="translate(130.21 35.208)" fill="#fff"></path>
        <path id="Path_3781" data-name="Path 3781" d="M74.784,119.515C62.676,118.462,53.2,107.407,53.2,95.3V73.188c0-11.582,9.476-23.163,21.584-24.216,12.635-1.053,23.163,7.37,25.269,18.425a3.937,3.937,0,0,1-3.685,4.738H89A3.959,3.959,0,0,1,85.313,69.5a9.208,9.208,0,0,0-9.476-6.317c-4.738.526-7.9,4.738-7.9,9.476V95.825a9.641,9.641,0,0,0,8.423,9.476c5.264.526,9.476-3.685,10-8.423H80.575a4.152,4.152,0,0,1-4.211-4.212V86.349a4.152,4.152,0,0,1,4.211-4.211h16.32a4.152,4.152,0,0,1,4.212,4.211v9.476C100.579,110.039,88.471,121.094,74.784,119.515Z" transform="translate(155.796 -48.446)" fill="#fff"></path>
      </g>
    </g>
    <text id="Noord-_Holland_Noord" data-name="Noord-&#xA;Holland&#xA;Noord" transform="translate(443 163)" fill="#0f9bd7" font-size="126" font-family="Montserrat-SemiBold, Montserrat, Arial, Roboto" font-weight="600"><tspan x="0" y="0">Noord-</tspan><tspan x="0" y="153">Holland </tspan><tspan x="0" y="306">Noord</tspan></text>
  </g>
</svg>