<?xml version="1.0"?><svg width="100%" height="100%" viewBox="0 0 416 269" version="1.1" xmlns="http://www.w3.org/2000/svg" xmlns:xlink="http://www.w3.org/1999/xlink" xml:space="preserve" xmlns:serif="http://www.serif.com/" style="fill-rule:evenodd;clip-rule:evenodd;stroke-linejoin:round;stroke-miterlimit:2;"><g><g><path d="M385.12,174.8c-2.21,-0.09 -4.03,-0.26 -5.97,-0.74c-6.85,-1.68 -12.69,-7.36 -18.89,-13.37l-1.59,-1.53c-8.13,-7.85 -18.15,-15.94 -30.76,-16.43c-10.05,-0.39 -20.24,4.14 -31.12,13.83c-1.59,1.41 -3.18,2.89 -4.67,4.28c-5.23,4.88 -10.16,9.48 -15.84,12.01c-3.13,1.39 -6.57,2.07 -9.96,1.99l-0.32,-0.01c-2.42,-0.08 -4.35,-0.24 -6.43,-0.76c-6.83,-1.67 -12.67,-7.34 -18.86,-13.34l-1.62,-1.57c-8.13,-7.84 -18.15,-15.93 -30.76,-16.43c-10.04,-0.39 -20.22,4.13 -31.12,13.83c-1.6,1.42 -3.17,2.89 -4.65,4.27c-5.23,4.88 -10.17,9.48 -15.84,12.02c-3.19,1.42 -6.63,2.11 -9.98,1.99l-0.33,-0.01c-2.4,-0.08 -4.32,-0.24 -6.39,-0.75c-6.83,-1.67 -12.68,-7.35 -18.88,-13.36l-1.6,-1.55c-8.13,-7.84 -18.15,-15.94 -30.76,-16.43c-10.04,-0.39 -20.23,4.14 -31.12,13.83c-1.52,1.35 -3.05,2.77 -4.66,4.27c-5.23,4.88 -10.16,9.48 -15.84,12.01c-3.01,1.34 -6.25,2.01 -9.46,2l-1.81,-0.06c-1.97,-0.09 -3.65,-0.28 -5.43,-0.72c-6.82,-1.67 -12.66,-7.33 -18.84,-13.33l-1.62,-1.59l7.69,-7.92l1.6,1.55c4.88,4.73 9.9,9.6 13.82,10.56c1.1,0.27 2.23,0.37 3.83,0.43l1.35,0.02l0.13,-0c1.43,-0.07 2.89,-0.42 4.27,-1.03c3.99,-1.78 8.27,-5.77 12.8,-10c1.67,-1.56 3.24,-3.02 4.86,-4.46c13.12,-11.68 25.84,-17.12 38.88,-16.61c16.32,0.64 28.37,10.23 38.01,19.53l1.61,1.56c4.86,4.72 9.89,9.6 13.83,10.56c1.2,0.3 2.44,0.39 4.29,0.45l0.34,0.01c1.63,0.03 3.34,-0.32 4.94,-1.04c3.99,-1.78 8.27,-5.77 12.8,-10c1.53,-1.43 3.17,-2.96 4.86,-4.46c13.13,-11.69 25.85,-17.12 38.89,-16.61c16.31,0.64 28.37,10.23 38,19.53l1.61,1.56c4.88,4.73 9.9,9.6 13.83,10.56c1.2,0.3 2.44,0.39 4.28,0.45l0.28,0.01c1.69,0.03 3.45,-0.34 5.01,-1.04c3.98,-1.78 8.26,-5.77 12.79,-9.99c1.54,-1.44 3.18,-2.97 4.87,-4.46c13.11,-11.67 25.85,-17.1 38.89,-16.61c16.32,0.64 28.37,10.23 38.01,19.53l1.6,1.55c4.87,4.73 9.89,9.61 13.84,10.57c1.1,0.27 2.23,0.37 3.85,0.43l1.16,0.02c1.52,-0.03 3.09,-0.38 4.56,-1.04c3.99,-1.78 8.27,-5.78 12.81,-10c1.56,-1.46 2.97,-2.77 4.42,-4.06l7.37,8.22c-1.37,1.23 -2.74,2.5 -4.26,3.92c-5.23,4.87 -10.16,9.48 -15.84,12.01c-3.02,1.35 -6.28,2.02 -9.49,2l-1.27,-0.05Z" style="fill:url(#_Linear1);fill-rule:nonzero;"></path></g><g><rect x="3.85" y="96.37" width="408.42" height="11.04" style="fill:url(#_Linear2);"></rect></g><g><path d="M3.85,68.76l0,-68.76l53.55,0c16.52,0 21.59,6.74 21.59,20.32l-0,28.81c-0,12.89 -5.07,19.63 -21.59,19.63l-53.55,-0Zm64.1,-48.44c0,-7.91 -2.33,-10.16 -10.55,-10.16l-42.51,-0l0,48.44l42.51,-0c8.22,-0 10.55,-2.25 10.55,-9.57l0,-28.71Z" style="fill:url(#_Linear3);fill-rule:nonzero;"></path></g><g><rect x="97.43" y="0" width="10.14" height="68.76" style="fill:url(#_Linear4);fill-rule:nonzero;"></rect></g><g><path d="M119.67,68.76l0,-10.16l14.06,-0c5.06,-0 7.22,-1.47 7.22,-4.49l0,-54.11l11.05,-0l0,54.11c0,8.5 -5.31,14.65 -18.27,14.65l-14.06,0Z" style="fill:url(#_Linear5);fill-rule:nonzero;"></path></g><g><path d="M210.8,68.76l-22.09,-30.67l-7.48,0l0,30.67l-11.04,0l0,-68.76l11.04,0l0,27.94l7.23,0l22,-27.94l13.12,0l-25.98,32.04l25.91,36.72l-12.71,0Z" style="fill:url(#_Linear6);fill-rule:nonzero;"></path></g><g><path d="M265.09,68.77l-0,-68.77l59.05,0l-0,10.16l-48.01,0l-0,17.19l45.52,0l-0,10.16l-45.52,0l-0,21.1l48.01,0l-0,10.16l-59.05,0Z" style="fill:url(#_Linear7);fill-rule:nonzero;"></path></g><g><path d="M406.87,68.76l-60.11,-53.53l0,53.53l-9.63,0l0,-68.76l9.55,0l55.96,51.08l0,-51.08l9.63,0l0,68.76l-5.4,0Z" style="fill:url(#_Linear8);fill-rule:nonzero;"></path></g><g><path d="M84.35,268.34l-20.26,-52.74l-20.67,52.74l-8.05,-0l-31.52,-68.76l10.63,-0l24.96,52.74l20.51,-52.74l8.22,-0l20.26,52.74l25.12,-52.74l10.71,-0l-31.6,68.76l-8.31,0Z" style="fill:url(#_Linear9);fill-rule:nonzero;"></path></g><g><path d="M310.45,268.34l-13.7,-26.06l-30.8,-0l0,26.06l-11.05,-0l0,-68.76l49.65,-0c13.29,-0 18.35,6.74 18.35,16.6l0,9.5c0,8.89 -4.07,15.24 -14.45,16.41l13.78,26.25l-11.78,-0Zm1.41,-52.26c-0,-4.1 -2.32,-6.35 -7.31,-6.35l-38.61,-0l-0,22.39l38.61,-0c4.98,-0 7.31,-2.25 7.31,-6.35l-0,-9.69Z" style="fill:url(#_Linear10);fill-rule:nonzero;"></path></g><g><path d="M337.13,268.34l0,-68.76l53.55,-0c16.52,-0 21.59,6.74 21.59,20.32l0,28.81c0,12.89 -5.07,19.63 -21.59,19.63l-53.55,-0Zm64.1,-48.45c0,-7.91 -2.33,-10.16 -10.55,-10.16l-42.51,-0l0,48.45l42.51,-0c8.22,-0 10.55,-2.25 10.55,-9.57l0,-28.72Z" style="fill:url(#_Linear11);fill-rule:nonzero;"></path></g><g><path d="M175.97,249.84l-22.52,-50.26l-8.22,0l-31.49,68.76l10.36,-0l25.28,-52.74l21.45,45.47l5.14,-11.23Z" style="fill:url(#_Linear12);fill-rule:nonzero;"></path></g><g><path d="M206.61,199.58l8.22,0l30.81,68.76l-10,0l-24.87,-52.74l-25.29,52.74l-10.36,0l31.49,-68.76Z" style="fill:url(#_Linear13);fill-rule:nonzero;"></path></g></g><defs><linearGradient id="_Linear1" x1="0" y1="0" x2="1" y2="0" gradientUnits="userSpaceOnUse" gradientTransform="matrix(409.164,0,0,409.164,-1.6218,153.248)"><stop offset="0" style="stop-color:#0078b7;stop-opacity:1"></stop><stop offset="0.28" style="stop-color:#0078b7;stop-opacity:1"></stop><stop offset="0.47" style="stop-color:#1e929f;stop-opacity:1"></stop><stop offset="0.69" style="stop-color:#8bb26a;stop-opacity:1"></stop><stop offset="0.84" style="stop-color:#b9c82e;stop-opacity:1"></stop><stop offset="0.91" style="stop-color:#cad200;stop-opacity:1"></stop><stop offset="1" style="stop-color:#cad200;stop-opacity:1"></stop></linearGradient><linearGradient id="_Linear2" x1="0" y1="0" x2="1" y2="0" gradientUnits="userSpaceOnUse" gradientTransform="matrix(409.164,0,0,409.164,-1.6218,101.89)"><stop offset="0" style="stop-color:#0078b7;stop-opacity:1"></stop><stop offset="0.28" style="stop-color:#0078b7;stop-opacity:1"></stop><stop offset="0.47" style="stop-color:#1e929f;stop-opacity:1"></stop><stop offset="0.69" style="stop-color:#8bb26a;stop-opacity:1"></stop><stop offset="0.84" style="stop-color:#b9c82e;stop-opacity:1"></stop><stop offset="0.91" style="stop-color:#cad200;stop-opacity:1"></stop><stop offset="1" style="stop-color:#cad200;stop-opacity:1"></stop></linearGradient><linearGradient id="_Linear3" x1="0" y1="0" x2="1" y2="0" gradientUnits="userSpaceOnUse" gradientTransform="matrix(409.164,0,0,409.164,-1.6218,34.3811)"><stop offset="0" style="stop-color:#0078b7;stop-opacity:1"></stop><stop offset="0.28" style="stop-color:#0078b7;stop-opacity:1"></stop><stop offset="0.47" style="stop-color:#1e929f;stop-opacity:1"></stop><stop offset="0.69" style="stop-color:#8bb26a;stop-opacity:1"></stop><stop offset="0.84" style="stop-color:#b9c82e;stop-opacity:1"></stop><stop offset="0.91" style="stop-color:#cad200;stop-opacity:1"></stop><stop offset="1" style="stop-color:#cad200;stop-opacity:1"></stop></linearGradient><linearGradient id="_Linear4" x1="0" y1="0" x2="1" y2="0" gradientUnits="userSpaceOnUse" gradientTransform="matrix(375.579,0,0,375.579,6.5085,34.3811)"><stop offset="0" style="stop-color:#0078b7;stop-opacity:1"></stop><stop offset="0.28" style="stop-color:#0078b7;stop-opacity:1"></stop><stop offset="0.47" style="stop-color:#1e929f;stop-opacity:1"></stop><stop offset="0.69" style="stop-color:#8bb26a;stop-opacity:1"></stop><stop offset="0.84" style="stop-color:#b9c82e;stop-opacity:1"></stop><stop offset="0.91" style="stop-color:#cad200;stop-opacity:1"></stop><stop offset="1" style="stop-color:#cad200;stop-opacity:1"></stop></linearGradient><linearGradient id="_Linear5" x1="0" y1="0" x2="1" y2="0" gradientUnits="userSpaceOnUse" gradientTransform="matrix(385.73,0,0,385.73,7.1765,34.3811)"><stop offset="0" style="stop-color:#0078b7;stop-opacity:1"></stop><stop offset="0.28" style="stop-color:#0078b7;stop-opacity:1"></stop><stop offset="0.47" style="stop-color:#1e929f;stop-opacity:1"></stop><stop offset="0.69" style="stop-color:#8bb26a;stop-opacity:1"></stop><stop offset="0.84" style="stop-color:#b9c82e;stop-opacity:1"></stop><stop offset="0.91" style="stop-color:#cad200;stop-opacity:1"></stop><stop offset="1" style="stop-color:#cad200;stop-opacity:1"></stop></linearGradient><linearGradient id="_Linear6" x1="0" y1="0" x2="1" y2="0" gradientUnits="userSpaceOnUse" gradientTransform="matrix(409.164,0,0,409.164,-1.6218,34.3811)"><stop offset="0" style="stop-color:#0078b7;stop-opacity:1"></stop><stop offset="0.28" style="stop-color:#0078b7;stop-opacity:1"></stop><stop offset="0.47" style="stop-color:#1e929f;stop-opacity:1"></stop><stop offset="0.69" style="stop-color:#8bb26a;stop-opacity:1"></stop><stop offset="0.84" style="stop-color:#b9c82e;stop-opacity:1"></stop><stop offset="0.91" style="stop-color:#cad200;stop-opacity:1"></stop><stop offset="1" style="stop-color:#cad200;stop-opacity:1"></stop></linearGradient><linearGradient id="_Linear7" x1="0" y1="0" x2="1" y2="0" gradientUnits="userSpaceOnUse" gradientTransform="matrix(409.164,0,0,409.164,-1.6218,34.3811)"><stop offset="0" style="stop-color:#0078b7;stop-opacity:1"></stop><stop offset="0.28" style="stop-color:#0078b7;stop-opacity:1"></stop><stop offset="0.47" style="stop-color:#1e929f;stop-opacity:1"></stop><stop offset="0.69" style="stop-color:#8bb26a;stop-opacity:1"></stop><stop offset="0.84" style="stop-color:#b9c82e;stop-opacity:1"></stop><stop offset="0.91" style="stop-color:#cad200;stop-opacity:1"></stop><stop offset="1" style="stop-color:#cad200;stop-opacity:1"></stop></linearGradient><linearGradient id="_Linear8" x1="0" y1="0" x2="1" y2="0" gradientUnits="userSpaceOnUse" gradientTransform="matrix(409.164,0,0,409.164,-1.6218,34.3811)"><stop offset="0" style="stop-color:#0078b7;stop-opacity:1"></stop><stop offset="0.28" style="stop-color:#0078b7;stop-opacity:1"></stop><stop offset="0.47" style="stop-color:#1e929f;stop-opacity:1"></stop><stop offset="0.69" style="stop-color:#8bb26a;stop-opacity:1"></stop><stop offset="0.84" style="stop-color:#b9c82e;stop-opacity:1"></stop><stop offset="0.91" style="stop-color:#cad200;stop-opacity:1"></stop><stop offset="1" style="stop-color:#cad200;stop-opacity:1"></stop></linearGradient><linearGradient id="_Linear9" x1="0" y1="0" x2="1" y2="0" gradientUnits="userSpaceOnUse" gradientTransform="matrix(409.164,0,0,409.164,-1.6218,233.959)"><stop offset="0" style="stop-color:#0078b7;stop-opacity:1"></stop><stop offset="0.28" style="stop-color:#0078b7;stop-opacity:1"></stop><stop offset="0.47" style="stop-color:#1e929f;stop-opacity:1"></stop><stop offset="0.69" style="stop-color:#8bb26a;stop-opacity:1"></stop><stop offset="0.84" style="stop-color:#b9c82e;stop-opacity:1"></stop><stop offset="0.91" style="stop-color:#cad200;stop-opacity:1"></stop><stop offset="1" style="stop-color:#cad200;stop-opacity:1"></stop></linearGradient><linearGradient id="_Linear10" x1="0" y1="0" x2="1" y2="0" gradientUnits="userSpaceOnUse" gradientTransform="matrix(409.164,0,0,409.164,-1.6218,233.959)"><stop offset="0" style="stop-color:#0078b7;stop-opacity:1"></stop><stop offset="0.28" style="stop-color:#0078b7;stop-opacity:1"></stop><stop offset="0.47" style="stop-color:#1e929f;stop-opacity:1"></stop><stop offset="0.69" style="stop-color:#8bb26a;stop-opacity:1"></stop><stop offset="0.84" style="stop-color:#b9c82e;stop-opacity:1"></stop><stop offset="0.91" style="stop-color:#cad200;stop-opacity:1"></stop><stop offset="1" style="stop-color:#cad200;stop-opacity:1"></stop></linearGradient><linearGradient id="_Linear11" x1="0" y1="0" x2="1" y2="0" gradientUnits="userSpaceOnUse" gradientTransform="matrix(409.164,0,0,409.164,-1.6218,233.959)"><stop offset="0" style="stop-color:#0078b7;stop-opacity:1"></stop><stop offset="0.28" style="stop-color:#0078b7;stop-opacity:1"></stop><stop offset="0.47" style="stop-color:#1e929f;stop-opacity:1"></stop><stop offset="0.69" style="stop-color:#8bb26a;stop-opacity:1"></stop><stop offset="0.84" style="stop-color:#b9c82e;stop-opacity:1"></stop><stop offset="0.91" style="stop-color:#cad200;stop-opacity:1"></stop><stop offset="1" style="stop-color:#cad200;stop-opacity:1"></stop></linearGradient><linearGradient id="_Linear12" x1="0" y1="0" x2="1" y2="0" gradientUnits="userSpaceOnUse" gradientTransform="matrix(409.164,0,0,409.164,-1.6218,233.959)"><stop offset="0" style="stop-color:#0078b7;stop-opacity:1"></stop><stop offset="0.28" style="stop-color:#0078b7;stop-opacity:1"></stop><stop offset="0.47" style="stop-color:#1e929f;stop-opacity:1"></stop><stop offset="0.69" style="stop-color:#8bb26a;stop-opacity:1"></stop><stop offset="0.84" style="stop-color:#b9c82e;stop-opacity:1"></stop><stop offset="0.91" style="stop-color:#cad200;stop-opacity:1"></stop><stop offset="1" style="stop-color:#cad200;stop-opacity:1"></stop></linearGradient><linearGradient id="_Linear13" x1="0" y1="0" x2="1" y2="0" gradientUnits="userSpaceOnUse" gradientTransform="matrix(409.164,0,0,409.164,-1.6218,233.959)"><stop offset="0" style="stop-color:#0078b7;stop-opacity:1"></stop><stop offset="0.28" style="stop-color:#0078b7;stop-opacity:1"></stop><stop offset="0.47" style="stop-color:#1e929f;stop-opacity:1"></stop><stop offset="0.69" style="stop-color:#8bb26a;stop-opacity:1"></stop><stop offset="0.84" style="stop-color:#b9c82e;stop-opacity:1"></stop><stop offset="0.91" style="stop-color:#cad200;stop-opacity:1"></stop><stop offset="1" style="stop-color:#cad200;stop-opacity:1"></stop></linearGradient></defs></svg>